HIERARCHY
ROOT Hips
{
	OFFSET 0.000000 0.000000 0.000000
	CHANNELS 6 Xposition Yposition Zposition Zrotation Yrotation Xrotation 
	JOINT LHipJoint
	{
		OFFSET 0.000000 0.000000 0.000000
		CHANNELS 3 Zrotation Yrotation Xrotation
		JOINT LeftUpLeg
		{
			OFFSET 1.363060 -1.794630 0.839290
			CHANNELS 3 Zrotation Yrotation Xrotation
			JOINT LeftLeg
			{
				OFFSET 2.448110 -6.726130 0.000000
				CHANNELS 3 Zrotation Yrotation Xrotation
				JOINT LeftFoot
				{
					OFFSET 2.562200 -7.039590 0.000000
					CHANNELS 3 Zrotation Yrotation Xrotation
					JOINT LeftToeBase
					{
						OFFSET 0.157640 -0.433110 2.322550
						CHANNELS 3 Zrotation Yrotation Xrotation
						End Site
						{
							OFFSET 0.000000 0.000000 0.000000
						}
					}
				}
			}
		}
	}
	JOINT RHipJoint
	{
		OFFSET 0.000000 0.000000 0.000000
		CHANNELS 3 Zrotation Yrotation Xrotation
		JOINT RightUpLeg
		{
			OFFSET -1.305520 -1.794630 0.839290
			CHANNELS 3 Zrotation Yrotation Xrotation
			JOINT RightLeg
			{
				OFFSET -2.542530 -6.985550 0.000000
				CHANNELS 3 Zrotation Yrotation Xrotation
				JOINT RightFoot
				{
					OFFSET -2.568260 -7.056230 0.000000
					CHANNELS 3 Zrotation Yrotation Xrotation
					JOINT RightToeBase
					{
						OFFSET -0.164730 -0.452590 2.363150
						CHANNELS 3 Zrotation Yrotation Xrotation
						End Site
						{
							OFFSET 0.000000 0.000000 0.000000
						}
					}
				}
			}
		}
	}
	JOINT LowerBack
	{
		OFFSET 0.000000 0.000000 0.000000
		CHANNELS 3 Zrotation Yrotation Xrotation
		JOINT Spine
		{
			OFFSET 0.028270 2.035590 -0.193380
			CHANNELS 3 Zrotation Yrotation Xrotation
			JOINT Spine1
			{
				OFFSET 0.056720 2.048850 -0.042750
				CHANNELS 3 Zrotation Yrotation Xrotation
				JOINT Neck
				{
					OFFSET 0.000000 0.000000 0.000000
					CHANNELS 3 Zrotation Yrotation Xrotation
					JOINT Neck1
					{
						OFFSET -0.054170 1.746240 0.172020
						CHANNELS 3 Zrotation Yrotation Xrotation
						JOINT Head
						{
							OFFSET 0.104070 1.761360 -0.123970
							CHANNELS 3 Zrotation Yrotation Xrotation
							End Site
							{
								OFFSET 0.000000 0.000000 0.000000
							}
						}
					}
				}
				JOINT LeftShoulder
				{
					OFFSET 0.000000 0.000000 0.000000
					CHANNELS 3 Zrotation Yrotation Xrotation
					JOINT LeftArm
					{
						OFFSET 3.362410 1.200890 -0.311210
						CHANNELS 3 Zrotation Yrotation Xrotation
						JOINT LeftForeArm
						{
							OFFSET 4.983000 -0.000000 -0.000000
							CHANNELS 3 Zrotation Yrotation Xrotation
							JOINT LeftHand
							{
								OFFSET 3.483560 -0.000000 -0.000000
								CHANNELS 3 Zrotation Yrotation Xrotation
								JOINT LeftFingerBase
								{
									OFFSET 0.000000 0.000000 0.000000
									CHANNELS 3 Zrotation Yrotation Xrotation
									JOINT LeftHandIndex1
									{
										OFFSET 0.715260 -0.000000 -0.000000
										CHANNELS 3 Zrotation Yrotation Xrotation
										End Site
										{
											OFFSET 0.000000 0.000000 0.000000
										}
									}
								}
								JOINT LThumb
								{
									OFFSET 0.000000 0.000000 0.000000
									CHANNELS 3 Zrotation Yrotation Xrotation
									End Site
									{
										OFFSET 0.000000 0.000000 0.000000
									}
								}
							}
						}
					}
				}
				JOINT RightShoulder
				{
					OFFSET 0.000000 0.000000 0.000000
					CHANNELS 3 Zrotation Yrotation Xrotation
					JOINT RightArm
					{
						OFFSET -3.136600 1.374050 -0.404650
						CHANNELS 3 Zrotation Yrotation Xrotation
						JOINT RightForeArm
						{
							OFFSET -5.241900 -0.000000 -0.000000
							CHANNELS 3 Zrotation Yrotation Xrotation
							JOINT RightHand
							{
								OFFSET -3.444170 -0.000000 -0.000000
								CHANNELS 3 Zrotation Yrotation Xrotation
								JOINT RightFingerBase
								{
									OFFSET 0.000000 0.000000 0.000000
									CHANNELS 3 Zrotation Yrotation Xrotation
									JOINT RightHandIndex1
									{
										OFFSET -0.622530 -0.000000 -0.000000
										CHANNELS 3 Zrotation Yrotation Xrotation
										End Site
										{
											OFFSET 0.000000 0.000000 0.000000
										}
									}
								}
								JOINT RThumb
								{
									OFFSET 0.000000 0.000000 0.000000
									CHANNELS 3 Zrotation Yrotation Xrotation
									End Site
									{
										OFFSET 0.000000 0.000000 0.000000
									}
								}
							}
						}
					}
				}
			}
		}
	}
}
MOTION
Frames: 5
Frame Time: 0.008333
4.480706 15.865766 12.640736 175.051948 -2.129399 -163.439869 -4.573854 2.024134 -4.684545 -16.358463 -1.086669 -14.667767 -3.793010 6.987381 38.220481 -3.523349 -14.254896 -19.960152 -6.217944 -1.993009 -11.816151 9.515349 -2.196791 1.325801 -0.646460 -0.684409 -58.859032 -8.521539 -17.715800 75.389573 -3.981296 -1.272169 -6.447391 0.401504 -1.111680 0.017548 -2.630936 1.751242 13.716210 3.482585 -1.847465 -9.705053 -0.134136 -3.604520 12.319406 -4.160384 2.467033 -22.018921 -5.464358 2.832144 8.322036 8.023583 0.141719 -3.644601 4.925079 -1.612245 3.226339 -67.020761 -53.103760 1.283511 22.685517 -73.680898 24.222368 7.604577 -34.127765 2.454825 0.000002 -0.000001 0.000002 0.000000 0.000000 -0.000000 0.000000 0.000000 -0.000000 -2.545495 -4.421995 -2.532762 66.723656 2.246038 27.589666 -42.039359 75.604702 14.331233 -35.182628 11.571674 -2.488246 -0.000005 0.000004 -0.000002 -0.000000 0.000000 -0.000000 -0.000000 0.000000 0.000000 
4.501261 15.984835 12.246111 175.745849 -1.474659 -163.210391 -4.773123 2.225709 -4.085518 -15.064716 -0.491994 -13.582469 -4.022906 6.767544 36.308869 -4.599946 -14.190668 -15.844090 -9.078726 -6.040311 -15.360566 9.902088 -2.615817 1.620880 -0.432709 0.848134 -59.572798 -6.386081 -17.668658 71.452219 -4.939277 -1.916506 -7.296364 -0.628762 1.210979 0.339752 -2.806005 1.816083 12.930860 4.155997 -1.867195 -9.643138 0.328510 -3.818066 12.011184 -4.217285 2.643151 -21.870403 -5.588673 3.036768 8.622289 7.838042 0.757390 -3.889910 4.347958 -1.743378 3.189820 -65.786475 -53.100965 0.198762 24.422395 -74.478412 22.236689 5.404357 -33.585034 3.107580 0.000002 -0.000001 0.000002 -0.000000 0.000000 -0.000000 -0.000000 -0.000000 -0.000000 -2.285936 -4.239831 -2.571298 66.354869 0.942169 28.050067 -43.396805 75.955575 13.301865 -34.582147 11.923786 -2.474913 -0.000005 0.000004 -0.000002 -0.000000 0.000000 0.000000 -0.000000 -0.000000 -0.000000 
4.519790 16.099399 11.855315 176.464584 -0.633754 -163.188786 -5.149207 2.542045 -3.672136 -13.681460 0.889319 -12.604958 -3.497275 7.229747 34.537291 -6.850760 -15.138700 -10.312804 -11.613397 -9.510682 -19.405284 10.304195 -3.184224 1.773813 0.077807 2.446799 -59.741859 -5.124244 -17.336609 67.181174 -4.232930 -1.692885 -7.997504 0.527918 0.945603 -1.529178 -2.940297 1.875566 12.557941 4.827273 -1.742119 -9.687279 0.803509 -3.879956 11.986879 -4.395046 2.745580 -22.136188 -5.782356 3.228290 8.882352 7.710084 1.301396 -4.230463 3.729669 -1.697682 3.156984 -64.689658 -53.297237 -0.698677 26.478627 -75.306140 20.560179 4.790149 -33.504511 3.296549 0.000002 -0.000001 0.000002 -0.000000 0.000000 0.000000 0.000000 0.000000 0.000000 -2.083010 -4.291523 -2.650531 66.045126 0.155897 28.335790 -44.177236 76.231005 13.223658 -34.553125 12.305326 -2.533717 -0.000005 0.000004 -0.000002 -0.000000 -0.000000 -0.000000 0.000000 0.000000 -0.000000 
4.536216 16.208258 11.456411 177.162088 0.408352 -163.122667 -5.524356 2.672238 -3.402139 -12.171213 2.366594 -11.893031 -3.410936 7.862639 33.313992 -8.660770 -14.932345 -4.133213 -14.345439 -13.805268 -23.777204 10.594922 -3.822512 1.955051 0.846607 4.127074 -59.591173 -4.185571 -16.881538 62.391919 -3.642527 -0.863179 -8.907587 1.540582 -0.460244 -2.440059 -3.052075 1.967522 12.286851 5.515693 -1.645540 -9.833380 1.071450 -3.926168 11.620775 -4.469058 2.866276 -22.238828 -6.122874 3.422740 9.083046 7.342160 1.864221 -3.188719 3.170609 -1.411162 3.045350 -64.105041 -52.728007 -1.204348 28.347976 -76.348167 18.926228 4.918091 -33.230828 3.226236 0.000002 -0.000001 0.000002 -0.000000 -0.000000 0.000000 0.000000 -0.000000 0.000000 -1.911178 -3.898578 -2.866287 65.955426 -0.842150 28.605306 -44.646121 76.192416 12.695168 -34.400831 12.176902 -2.493772 -0.000005 0.000004 -0.000002 0.000000 0.000000 -0.000000 -0.000000 0.000000 0.000000 
4.556697 16.303754 11.054790 177.805086 1.360826 -163.061035 -5.680362 2.881416 -3.163059 -11.006745 3.906132 -11.132302 -3.357569 8.245115 32.108772 -10.450578 -14.276245 2.284079 -16.433267 -18.710592 -26.652588 10.712594 -4.595244 2.250925 1.812072 5.859793 -59.346873 -2.714395 -16.039138 57.391757 -4.660940 -0.585329 -9.312578 -2.331305 2.468930 2.645077 -3.243453 2.094780 11.845273 6.232257 -1.627652 -9.852873 0.757675 -3.797778 11.155076 -3.982658 3.072322 -22.072192 -6.279695 3.540489 9.289942 6.781568 2.482450 -2.390535 3.474743 -1.397459 2.784777 -63.664685 -51.778303 -1.592637 31.033811 -77.293910 16.116734 3.762392 -32.608221 3.521582 0.000002 -0.000001 0.000002 -0.000000 0.000000 0.000000 0.000000 -0.000000 0.000000 -1.272365 -3.604444 -2.883476 65.961857 -1.902947 28.248841 -43.417721 76.608317 13.122849 -33.957454 12.209026 -2.443058 -0.000005 0.000004 -0.000002 0.000000 -0.000000 -0.000000 0.000000 -0.000000 -0.000000 
